<svg xmlns="http://www.w3.org/2000/svg" xml:space="preserve" viewBox="20.38 253.68 600 134.15"><path d="M20.6 370.4c.7-4 6.1-34.3 6.1-34.3 3.3 4.4 6.3 8.3 7.2 9.4 1.9 2.3 6.1 2.7 9.3.1L69.9 323l-28.8-35c-10.8-13.7-1.1-34.3 17.4-34.3h89.9c-6 5.1-24.4 20.8-28.1 23.9-2.7 2.2-5.7 2.9-8.9 2.9H86.1c-3 0-4.4 3.3-2.4 5.7l44.1 53.4c1.9 2.1 5.3 1.1 5.8-1.7l4.4-25.1c.6-3.2 1.4-5.9 4.5-8.5 4.4-3.7 20.1-17.1 28-23.8l-15.8 89.7c-3.5 18.2-26.7 23.1-37.4 10.3l-27.9-33.7s-39.8 34-44 37.4c-11.6 9.3-26.9-1.3-24.8-13.8" style="fill:#df0031"/><path d="M619.1 266.6s-25.2 1.8-27.7 2c-2.2.1-4.2 1.9-4.6 4.2l-.7 3.8h31.2zm-285.3 61.7 6.7-37.8c1-5.5-2.7-9.9-8.1-9.9l-32.9.1-18.8 106.9H295l6.9-38.9 5.3-1.2 2.2 40.1h14.5l-2.9-44.4c4.4-1.2 11.2-5.8 12.8-14.9m-14.5 1.4c-.2 1.3-1.1 2-1.9 2.2l-13.3 3.4 7.3-41.5 12.7.1c.8 0 1.4.7 1.3 1.5zm-111.6-48.9c-5.5 0-10.7 4.4-11.6 9.9l-17.1 97h14.2l6.9-38.9 15-3.3-7.4 42.2h14.1l18.8-106.9zm9.7 51.2-15 3.3 7.1-40.1c.1-.8 1-1.5 1.8-1.5h12.9zm76.5-51.2h-14l-23.4 51 9-51h-14.2l-18.8 106.9h14.2l7.7-43.4 6.8 43.4h14.1l-7.6-49.1zm318.2 0H589c-5.5 0-10.7 4.4-11.6 9.9l-15.4 87c-1 5.5 2.6 10 8.1 10h23.1c5.5 0 10.7-4.4 11.6-9.9l5.1-29.1h-14l-4.4 24.6c-.1.8-.9 1.5-1.8 1.5h-11.4c-.8 0-1.4-.7-1.3-1.5l13.8-78.1c.2-.8 1-1.5 1.8-1.5H604c.8 0 1.4.7 1.3 1.5l-3.8 21.6h14.1l4.6-26.2c1-5.4-2.6-9.8-8.1-9.8m-252 0c-5.5 0-10.7 4.4-11.6 9.9l-17.1 97h14.2l6.8-38.8 15-3.3-7.4 42.1h14.1l18.8-106.9zm9.8 51.2-15 3.3 7.1-40.1c.2-.8 1-1.5 1.8-1.5h12.9zm162.5-51.2-21.1 78.5 6.6-78.5h-14.2L498 387.7h16.6l31.8-106.9zm22 0-18.8 106.9h14.2l18.8-106.9zm-110 9.9c1-5.5-2.7-9.9-8.2-9.9h-32.8l-18.8 106.9h14.3l6.9-38.9 18.8-5.3c4.5-1.3 11.6-5.9 13.3-15zm-21.1 38.7c-.2 1.3-1.2 2.1-1.9 2.3l-13.3 3.5 7.3-41.7h12.8c.8 0 1.4.7 1.3 1.5zm64-48.6h-23.1c-5.5 0-10.7 4.4-11.6 9.9l-15.4 87.1c-1 5.5 2.6 10 8.1 10h23.1c5.5 0 10.7-4.4 11.6-9.9l15.4-87.2c1-5.5-2.7-9.9-8.1-9.9m-20.6 92.6c-.1.8-1 1.5-1.8 1.5h-11.4c-.8 0-1.4-.7-1.3-1.5L466 295c.2-.8 1-1.5 1.8-1.5h11.4c.8 0 1.4.7 1.3 1.5z" style="fill-rule:evenodd;clip-rule:evenodd"/></svg>