<svg viewBox="-4.063981644970397 -1.9500341999999478 438.3435266272189 103.18100000000001" version="1.2"
     xmlns="http://www.w3.org/2000/svg" style="max-height: 500px" width="438.3435266272189" height="103.18100000000001"><defs><symbol style="overflow:visible" id="a" overflow="visible"/><symbol style="overflow:visible" id="b" overflow="visible"/><symbol style="overflow:visible" id="c" overflow="visible"/><symbol style="overflow:visible" id="d" overflow="visible"/><symbol style="overflow:visible" id="e" overflow="visible"/><symbol style="overflow:visible" id="g" overflow="visible"/><symbol style="overflow:visible" id="h" overflow="visible"/><clipPath id="f"><path d="M30.543 607h532.195v9.5H30.543Zm0 0"/></clipPath></defs><g style="stroke-width:.25"><path transform="matrix(4 0 0 4 -2280.441 -1591.372)" style="fill:#1c1e1e;fill-opacity:1;fill-rule:nonzero;stroke:none;stroke-width:.25" d="m668.708 410.433-.707 1.8h1.347l-.707 1.606h-7.324l.645-1.605h1.476l2.313-5.204h-1.54l.512-1.605h9.891c1.734 0 2.25.258 2.441.898.063.77-.19 1.22-.449 1.864-.386.898-1.285 2.312-3.148 2.246zm2.504-1.606c.707 0 .836-.32.898-.449.13-.32.192-.45.32-.707.067-.191.067-.64-.511-.64h-1.672l-.77 1.796zm-77.402 5.013.706-1.606h1.48l2.31-5.204h-1.348l.707-1.605h10.406c.512.129 1.156.383 1.414.96.77 1.352-.258 2.7-.707 3.919-.707 1.48-1.8 3.215-3.598 3.406l-.707.13zm8.48-1.606c.45 0 .578-.13.965-.45.64-.773 1.734-3.406 1.797-4.175.066-.325-.258-.579-.641-.579h-1.734l-2.313 5.204zm51.77 1.606c-1.028 0-1.735 0-2.696-.067-.836-.063-1.734-.383-2.059-1.157-.449-1.218.13-1.988.645-3.082.965-1.925 1.414-3.273 2.957-3.789 1.281-.515 2.824-.386 4.3-.449 1.415 0 2.763 0 4.114.192.703.128 1.54.386 1.797 1.222.191.961-.45 1.988-.578 2.375-.836 1.797-.899 1.863-1.606 3.02-.644.96-1.992 1.539-2.957 1.605-1.156.13-2.566.13-3.722.13zm3.277-2.892c.449-.964.898-1.734 1.285-2.761.129-.387.45-1.414-1.414-1.477-1.797 0-2.246.899-2.442 1.348-.254.707-1.09 2.183-1.218 2.762-.387 1.347.707 1.414 1.218 1.414 0 0 1.93.191 2.57-1.286m-35.003-3.918s-1.352 3.532-2.317 5.075c-.77 1.347-2.308 1.668-3.789 1.797-1.543.066-3.144.128-4.625-.13-.64-.128-1.285-.769-1.414-1.413-.125-.512.067-.961.258-1.348.578-1.285 1.672-3.98 1.672-3.98h-1.414l.644-1.606h7.383l-.64 1.605h-1.414l-1.735 3.98c-.062.321-.062.645.195.9.512.449 1.415.386 2.055.257.578-.191 1.09-.707 1.348-1.219l1.672-3.918h-1.352l.707-1.605h4.883l-.707 1.605zm14.387 0-2.958 6.81h-3.468l-2.696-5.142-1.543 3.536h1.348l-.64 1.539-5.137.066.703-1.605h1.61l2.183-5.204h-1.414l.578-1.605h5.266l2.507 5.008 1.473-3.403h-1.348l.645-1.605h4.945l-.578 1.605zm8.414 0-2.184 5.204h2.375l2.184-2.442h1.476l-1.797 4.047h-11.113l.773-1.605h1.477l2.246-5.204h-1.414l.578-1.605h7.516l-.64 1.605zm0 0"/><path transform="matrix(4 0 0 4 -2280.441 -1591.372)" style="fill:#e83d23;fill-opacity:1;fill-rule:nonzero;stroke:none;stroke-width:.25" d="M576.723 416.023c-4.171 0-6.613-3.278-6.613-6.23 0-2.958 2.442-6.298 6.55-6.298-.448-.382-6.163-5.652-6.163-5.652l20.422 12.012-20.23 11.754zm0 0"/><path transform="matrix(4 0 0 4 -2280.441 -1591.372)" style="fill:#fff;fill-opacity:1;fill-rule:nonzero;stroke:none;stroke-width:.25" d="M577.56 415.573c3.214 0 5.78-2.636 5.78-5.78a5.756 5.756 0 0 0-5.78-5.782 5.755 5.755 0 0 0-5.778 5.781c0 3.145 2.566 5.781 5.777 5.781"/><path transform="matrix(4 0 0 4 -2280.441 -1591.372)" style="fill:#1c1e1e;fill-opacity:1;fill-rule:nonzero;stroke:none;stroke-width:.25" d="M578.524 412.105h-5.847l.644-1.352h.77l.964-2.117h-.77l.58-1.352h5.972c1.164 0 1.734.72 1.734 1.657 0 .406-.11.851-.32 1.3-.742 1.762-1.781 1.864-3.172 1.864zm-1.863-1.352h1.348c.515 0 1.156 0 1.609-.96.07-.169.11-.34.11-.493 0-.375-.216-.664-.626-.664h-1.543zm0 0"/></g><g transform="translate(-409.678 -362.195)" style="clip-rule:nonzero" clip-path="url(#f)"><path transform="matrix(1 0 0 -1 49.133 626.086)" d="M0 0h495.016c0-6.152 5.035-11.191 11.191-11.191V-180.22c-6.156 0-11.191-5.039-11.191-11.191H0c0 6.152-5.035 11.191-11.191 11.191v169.03C-5.035-11.191 0-6.152 0 0zm0 0" style="fill:none;stroke:#000;stroke-width:.55900002;stroke-linecap:butt;stroke-linejoin:miter;stroke-miterlimit:22.9260006;stroke-opacity:1"/></g><g transform="translate(-409.678 -362.195)" style="fill:#000;fill-opacity:1"/></svg>