<svg xmlns="http://www.w3.org/2000/svg" width="400" height="132" xml:space="preserve"><path transform="translate(-48.242 846.883)scale(1.25)" style="fill:#0b3d91;fill-opacity:1;fill-rule:nonzero;stroke:none" d="M38.593-677.507h320v105.6h-320z"/><path d="M65.787 591.28H60.41v2.588h14.693v-2.588h-5.378v-10.998h-3.937zm16.761 2.588H96.08v-2.588h-9.597v-2.818h9.11v-2.473h-9.11v-3.119h9.681v-2.588H82.548zm34.113-5.139c-.366 1.959-2.09 2.932-4.138 2.932-3.735 0-4.526-2.743-4.526-4.587 0-1.845.79-4.588 4.526-4.588 1.906 0 3.754.859 4.138 3.007h4.28c-.486-3.956-3.955-5.595-8.56-5.595-5.277 0-8.566 2.132-8.566 7.176 0 5.043 3.29 7.173 8.565 7.173 3.49 0 7.933-.837 8.522-5.518zm12.257 5.139h3.936v-5.099h8.159v5.1h3.937v-13.587h-3.937v5.899h-8.159v-5.899h-3.936zm37.095 0h3.816v-13.586h-4.284l-7.892 9.476h-.04v-9.476h-3.816v13.586h4.566l7.61-9.476h.04zm16.032-6.794c0 2.11 1.258 4.587 4.83 4.587 3.57 0 4.829-2.476 4.829-4.587s-1.259-4.585-4.83-4.585c-3.57 0-4.829 2.474-4.829 4.585m-4.182 0c0-2.837 1.219-7.173 9.011-7.173 7.793 0 9.012 4.336 9.012 7.173s-1.219 7.176-9.012 7.176c-7.792 0-9.01-4.34-9.01-7.176m26.056 6.794h3.937v-10.883h8.828v-2.703H203.92zm24.107-6.794c0 2.11 1.259 4.587 4.83 4.587 3.57 0 4.83-2.476 4.83-4.587s-1.26-4.585-4.83-4.585-4.83 2.474-4.83 4.585m-4.181 0c0-2.837 1.218-7.173 9.01-7.173 7.794 0 9.012 4.336 9.012 7.173s-1.218 7.176-9.011 7.176-9.011-4.34-9.011-7.176m35.229.781h7.387v-7.573h-1.99l-.527 1.578c-1.38-1.389-3.571-1.96-6.088-1.96-5.276 0-8.562 2.13-8.562 7.174 0 4.206 3.084 7.176 8.562 7.176 4.02 0 7.814-1.104 8.524-4.836h-4.383c-.589 1.751-2.272 2.247-3.695 2.247-3.57 0-4.83-2.473-4.83-4.587 0-2.111 1.26-4.585 4.83-4.585 2.151 0 3.816.76 4.284 3.007h-3.512zm16.072-7.573h3.937v13.587h-3.937zm12.783 13.586h13.535v-2.588h-9.597v-2.818h9.11v-2.473h-9.11v-3.119h9.68v-2.588h-13.617zm31.678-3.939c-.245 1.77-2.05 1.959-3.633 1.959-1.625 0-2.679-.685-2.679-1.597 0-.725.651-1.125 1.665-1.277l4.932-.74c2.638-.4 4.646-1.334 4.646-3.807 0-2.53-1.825-4.566-7.529-4.566-3.53 0-8.118.418-8.159 4.662h4.424c.04-1.866 2.03-2.189 3.735-2.189 1.848 0 3.106.512 3.106 1.693 0 1.048-.893 1.333-2.458 1.562l-3.59.512c-2.517.362-4.953 1.066-4.953 3.843 0 3.026 2.638 4.263 7.185 4.263 2.982 0 7.406-.475 7.67-4.318zm-194.004 79.218 13.28-32.278-29.79-36.113h20.772l16.122 19.182 7.991-19.182h20.9l-14.154 35.691 27.12 32.7h-20.61l-13.711-16.035-7.244 16.035zm-42.312-46.953-1.374-6.745h28.33l-3.103-14.5-48.261.043 5.462 27.26H46.59l3.14 14.782h17.743l5.664 26.395h48.673l-2.846-13.713-28.654-.02-2.837-12.662h22.56l-3.18-14.783-22.48-.03zl-7.592 2.533c1.017 2.886 2.046 4.597 4.306 6.513 4.042 2.721 13.345 2.417 16.196 2.504 2.207 0 2.629 2.26-.043 2.303-2.585.118-11.528-.57-13.862 2.27-2.995 3.58-1.913 9.603-.874 14.178.331 1.73-1.538 2.269-2.077.43-1.494-5.675-2.728-10.607-6.392-13.936-2.951-2.765-11.215-2.824-15.614-2.833-1.937-.143-2.033-2.29.431-2.29 4.262 0 10.143.325 12.564-1.851 3.217-4.229 1.667-10.23.976-15.038-.443-2.067 1.404-2.91 1.956-.554a97 97 0 0 0 2.433 8.304zm109.072 46.953h19.334l-14.718-68.39h-19.203zm92.678 0-14.544-68.39h56.794l3.038 14.475h-37.61l2.626 12.815h34.32l3.172 14.835-34.148-.077 2.616 12.771 37.229-.14 2.877 13.71zm64.5-4.411c0-1.677-1.193-2.802-2.6-2.802v.009c-1.445-.01-2.613 1.116-2.613 2.793s1.168 2.793 2.613 2.793c1.407 0 2.6-1.116 2.6-2.793m-3.208-.307h.394l.908-1.649h.992l-1.004 1.714c.52.04.945.3.945 1.023 0 .896-.598 1.184-1.609 1.184h-1.463v-3.921h.837zm0 .663v.946h.586c.32 0 .753-.031.753-.434 0-.434-.223-.512-.598-.512zm4.26-.356c0 2.303-1.727 3.642-3.652 3.642-1.938 0-3.661-1.339-3.661-3.642s1.723-3.642 3.66-3.642c1.926 0 3.652 1.339 3.652 3.642m-97.075 4.771c-19.615 0-34.4-.35-34.4-.35l-14.7-68.4h25.8c27.576 0 39.725 14.467 43.975 34.3.695 4.024 1.093 7.751 1.15 11.15q.015.851 0 1.675c-.238 13.702-6.5 21.625-21.825 21.625m-17.975-14.075 14.8-.175c9.665 0 6.537-10.919 4.875-18.975-1.547-11.56-5.841-21.05-15.175-21.05h-13.1l3 14.75z" style="fill:#fff;fill-opacity:1;fill-rule:nonzero;stroke:none" transform="matrix(1.25 0 0 -1.25 -48.242 846.883)"/></svg>