<svg version="1.1" id="Layer_1" xmlns="http://www.w3.org/2000/svg" x="0px" y="0px"
     style="enable-background:new 0 0 512 512;" xml:space="preserve" viewBox="0 209.92 512.02 92.1">
<g id="XMLID_29_">
	<path id="XMLID_31_" d="M47.74,280.51H14.11C6.78,280.51,0,274.42,0,262.93c0-24.49,20.2-31.69,33.21-31.69   c9.55,0,14.39,3.6,14.39,3.6l-3.6,6.5c0,0-2.49-3.04-8.16-3.74c-4.7-0.55-7.89,1.52-8.44,3.18l-7.89,29.06   c-0.55,1.94,0.14,4.7,2.08,4.7h6.23l5.95-20.06h20.48L47.74,280.51z"/>
	<path id="XMLID_37_" d="M94.51,230.69c-14.94,0-32.24,10.66-32.24,30.58c0,15.08,13.15,20.62,22.28,20.62   c18.96,0,31.83-18.13,31.83-31.69C116.38,236.64,103.51,230.69,94.51,230.69z M93.68,237.47c4.57,0.55,3.18,5.81,3.18,5.81   l-7.2,28.64c0,0-0.97,4.7-5.81,3.87c-4.15-0.69-3.18-5.4-3.18-5.4l7.61-28.64C88.15,241.76,89.53,237.06,93.68,237.47z"/>
	<path id="XMLID_40_" d="M225.56,231.94l-32.1,0.28L181,280.64h33.21c5.95,0,24.22-8.44,25.05-29.89   C239.67,235.95,228.32,231.94,225.56,231.94z M212,238.99h6.09c1.94,0.55,2.49,3.32,1.8,5.4l-6.78,26.85   c-0.28,1.25-2.08,2.35-3.6,2.35H203L212,238.99z"/>
	<polygon id="XMLID_41_" points="301.39,280.92 324.22,280.92 329.76,259.06 352.45,231.8 342.35,231.8 326.85,249.51 321.04,231.8    297.93,231.8 306.65,259.2  "/>
	<polygon id="XMLID_42_" points="357.85,231.8 344.84,280.51 384.97,280.51 386.63,273.03 368.78,273.03 372.38,260.16    384.55,260.16 385.94,251.86 374.87,251.86 377.77,239.82 395.9,239.82 397.15,231.8  "/>
	<path id="XMLID_46_" d="M419.56,231.8l-29.75,48.85h8.86l4.43-7.33h18.54l0.14,7.33h21.31l-4.29-48.85L419.56,231.8L419.56,231.8z    M418.46,248.68l2.21,17.02H407.8L418.46,248.68z"/>
	<path id="XMLID_52_" d="M462.6,231.8l-13.01,48.99h21.86l4.01-14.25h2.91l3.6,14.25h22.28l-3.87-17.44c0,0,11.62-6.78,11.62-16.88   c0-10.38-9.69-14.67-15.36-14.67L462.6,231.8L462.6,231.8z M489.03,238.72c1.66,0,1.8,4.15,1.25,6.23l-2.49,10.79   c-0.42,1.8-2.63,3.46-3.87,3.18h-6.23l4.57-20.2H489.03z"/>
	<path id="XMLID_53_" d="M254.89,256.71l8.72,17.99c0,0-8.3,8.3-11.9,11.9c-9.41,9.55-16.61,10.24-17.57,9.55   c-2.63-1.8,6.5-8.3,9.55-14.25C246.87,276.08,248.8,264.45,254.89,256.71z"/>
	<path id="XMLID_54_" d="M257.38,253.66l9.55,18.13c0,0,8.58-7.61,20.2-14.67l-3.6-6.5c0,0-4.43,5.81-5.4,5.81   c-2.35,0-7.06-9.41-7.06-9.41L257.38,253.66z"/>
	<polygon id="XMLID_55_" points="266.38,244.39 256.69,249.79 256.97,242.59  "/>
	<path id="XMLID_60_" d="M270.53,234.56c-0.14,0.69-0.55,5.4-0.55,5.4l-8.44-0.14L270.53,234.56z"/>
	<polygon id="XMLID_61_" points="250.19,231.24 254.75,238.99 268.45,230.69 268.87,220.87  "/>
	<path id="XMLID_62_" d="M237.04,300.16c0.28-0.83,5.81-1.94,13.7-8.16c4.98-3.87,18.96-17.85,18.96-17.85s10.93-9.82,19.1-14.11   c0.69-0.42,1.66,1.52,0.97,1.94c-10.93,5.81-14.25,10.38-20.06,15.22c-5.81,4.84-12.18,12.87-18.27,17.44   c-3.74,2.77-12.32,7.89-13.7,7.33C237.04,301.82,236.9,300.99,237.04,300.16z"/>
	<path id="XMLID_66_" d="M342.49,209.93c-0.97,0-9.13,1.38-12.73,1.52c-5.67,0.28-13.28,0.14-18.96,0   c-6.64-0.14-20.76-0.97-20.76-0.97c-12.32,0.28-17.3,7.61-17.3,13.98c0,5.67,2.35,6.78,2.35,8.16c0,2.21-0.83,4.84-0.55,6.78   c0.42,3.18,1.11,9.96,3.87,9.96c2.77,0,3.6-9.27,5.54-9.27c1.11,0,1.25,2.35,2.91,2.35c1.25,0,1.11-6.37,1.8-6.37   c1.11,0,2.21,1.8,3.04,1.8c1.52,0,1.94-10.24,2.77-10.24c2.49,0,4.98,2.77,9.69-0.14c0.83-0.55-1.66-1.25-1.52-2.21   c0.28-1.38,7.2,0.14,8.03-1.94c0.69-1.52-4.98-1.94-3.46-4.57c0.14-0.28,6.09,0.97,8.72,1.25c3.46,0.28,11.76,0,11.76,0   C338.89,219.76,340.41,214.22,342.49,209.93L342.49,209.93z M291.7,214.5c1.52,0.14,5.26,0.28,5.26,0.28s0.28,2.35-1.8,2.35   c-2.63,0-2.77,3.04-4.57,3.04c-3.32,0-3.04,1.52-4.43,1.8c-1.25,0.28-4.43,0-4.43,0c-0.55-0.28-1.25-1.11-1.25-1.8   c0-0.42,1.25-0.69,3.18-0.69s-0.55-2.91,5.4-2.91C290.46,216.58,291.01,214.5,291.7,214.5z M277.17,226.68   c1.25,0,2.91,0.28,3.46,0.97c0.97,1.11,1.25,4.98-0.28,4.98c-1.38,0-1.38-2.08-2.08-2.77c-0.69-0.83-3.04-1.52-2.63-2.49   C275.93,226.82,276.48,226.68,277.17,226.68z"/>
	<path id="XMLID_69_" d="M156.37,230.69c-14.94,0-32.24,10.66-32.24,30.58c0,15.08,13.15,20.62,22.28,20.62   c18.96,0,31.83-18.13,31.83-31.69C178.23,236.64,165.36,230.69,156.37,230.69z M155.54,237.47c4.57,0.55,3.18,5.81,3.18,5.81   l-7.2,28.64c0,0-0.97,4.7-5.81,3.87c-4.15-0.69-3.18-5.4-3.18-5.4l7.61-28.64C149.86,241.76,151.39,237.06,155.54,237.47z"/>
</g>
</svg>