<?xml version="1.0" encoding="UTF-8"?>
<!-- Generator: Adobe Illustrator 26.5.0, SVG Export Plug-In . SVG Version: 6.00 Build 0)  -->
<svg width="179.1" height="46.9" version="1.1" viewBox="0 0 179.1 46.9" xml:space="preserve" xmlns="http://www.w3.org/2000/svg">
  <style type="text/css">
    .st0 {
      display: none;
    }

    .st1 {
      display: inline;
    }

    .st2 {
      fill: #4C4949;
    }

    .st3 {
      fill: #231815;
    }
  </style>
  <g>
    <g>
      <path class="st3" d="m169.4 0h-13.9c-5.3 0-9.7 4.3-9.7 9.7v5.1c0 5.3 4.4 9.7 9.7 9.7h13.9c5.3 0 9.7-4.4 9.7-9.7v-5.1c0-5.4-4.3-9.7-9.7-9.7zm1 14.3c0 2.5-2 4.5-4.5 4.5h-6.9c-2.5 0-4.5-2-4.5-4.5v-4.3c0-2.5 2-4.5 4.5-4.5h6.9c2.5 0 4.5 2 4.5 4.5z" />
      <path class="st3" d="m56.3 14.4c0 2.5-2 4.5-4.5 4.5h-5.1c-2.5 0-4.5-2-4.5-4.5v-13.8h-8.7v14.1c0 5.3 4.4 9.7 9.7 9.7h12.1c5.3 0 9.7-4.3 9.7-9.7v-14.1h-8.7z" />
      <polygon class="st3" transform="translate(-.7 -12.8)" points="81.3 13.4 69.8 13.4 69.8 36.6 78.3 36.6 78.3 23.6 84.2 36.6 92.8 36.6 98.7 23.6 98.7 36.6 107.2 36.6 107.2 13.4 95.7 13.4 88.5 30.2" />
      <polygon class="st3" transform="translate(-.7 -12.8)" points="9.3 13.4 0.7 13.4 0.7 36.5 9.3 36.5 9.3 26.2 22 36.6 33.9 36.6 18.8 24.2 32 13.4 21.4 13.4 9.3 23.3" />
      <polygon class="st3" transform="translate(-.7 -12.8)" points="120.1 21.8 120.1 13.4 111.5 13.4 111.5 36.6 120.1 36.6 120.1 28.2 134.2 28.2 134.2 36.6 142.9 36.6 142.9 13.4 134.2 13.4 134.2 21.8" />
    </g>
    <g>
      <polygon class="st3" transform="translate(-.7 -12.8)" points="96.9 47.1 105.5 47.1 105.5 59.7 111.9 59.7 111.9 47.1 120.5 47.1 120.5 42.3 96.9 42.3" />
      <path class="st3" d="m154.7 35.4v-0.3c0-3.6-2.2-5.6-6.1-5.6h-16.1v17.3h6.5v-5.8h4.4l4.4 5.8h7.2l-4.4-6c2.5-0.6 4.1-2.5 4.1-5.4zm-8.2 1.5h-7.7v-3.3h7.7c0.9 0 1.6 0.7 1.6 1.6 0.1 1-0.7 1.7-1.6 1.7z" />
      <polygon class="st3" transform="translate(-.7 -12.8)" points="178.6 59.7 178.6 55.6 164.6 55.6 164.6 53 177.8 53 177.8 48.9 164.6 48.9 164.6 46.4 178.6 46.4 178.6 42.3 158.1 42.3 158.1 59.7" />
      <path class="st3" d="m122.7 29.5h6.5v17.3h-6.5z" style="fill:#231815" />
    </g>
  </g>
</svg>