<svg version="1.1" id="layer" xmlns="http://www.w3.org/2000/svg" x="0px" y="0px"
     style="enable-background:new 0 0 652 652;" xml:space="preserve" viewBox="15.18 298.58 623.65 57.15">
<style type="text/css">
	.st0{fill:#812990;}
</style>
<g>
	<path d="M237.1,341.2v-9.7h23.4v-10.4h-23.4v-12h26.7v-10.4h-43.1v41.6c0,10.7,4.9,15.4,16,15.4h27.9v-10.4h-22.9   C238.7,345.3,237.1,343.9,237.1,341.2"/>
	<path d="M344,341.2v-9.7h23.4v-10.4H344v-12h26.7v-10.4h-43.1v41.6c0,10.7,4.9,15.4,16,15.4h27.9v-10.4h-22.9   C345.6,345.3,344,343.9,344,341.2"/>
	<path d="M611.3,341.2v-9.7h23.4v-10.4h-23.4v-12h26.7v-10.4h-43.1v41.6c0,10.7,4.9,15.4,16,15.4h27.9v-10.4h-22.9   C612.9,345.3,611.3,343.9,611.3,341.2"/>
	<rect x="509.7" y="298.7" width="15.9" height="57"/>
	<path d="M574.3,330.1l0.5-0.2c0.1,0,11.7-2.8,11.7-14.1v-0.8c0-1.3-0.4-13.1-15.3-15.7c-2.6-0.4-5.6-0.7-9.3-0.7h-24.6v57h16.1   v-21.2h4.6c10.5,0,12.7,13,15.4,21.2h17.4c-1.1-2.5-2-3.9-4.3-10C581.6,332.6,574.3,330.1,574.3,330.1 M571.2,316.9   c0,2.6-1,4.6-2.7,5.6c-1.9,1.1-4.9,1.6-9.5,1.6h-5.7v-15.2h5.7c5.1,0,7.8,0.5,9.4,1.6c1.9,1.4,2.8,3.4,2.8,6V316.9z"/>
	<polygon points="472.6,355.7 488.8,355.7 488.8,309.1 504.9,309.1 504.9,298.7 455.4,298.7 455.4,309.1 472.6,309.1  "/>
	<path d="M182.4,307c-3.3-8.1-10.3-8.3-10.4-8.3h-10.4v57h13.2v-40.4l0.4,1c0.1,0.2,7.6,17,12.4,29.2c3.5,8.9,7.1,10.2,11.7,10.2   h11.9v-57H198v43L182.4,307z"/>
	<path d="M399.9,307c-3.3-8.1-10.3-8.3-10.4-8.3h-10.4v57h13.2v-40.4l0.4,1c0.1,0.2,7.6,17,12.4,29.2c3.5,8.9,7.1,10.2,11.7,10.2   h11.9v-57h-13.2v43L399.9,307z"/>
	<path d="M305.5,325.8l19.8-27.1h-13.9c-2.7,0-4.6,1.2-6.7,4.2l-8.3,12.9l-8.3-12.9c-2-3-4-4.2-6.6-4.2h-13.9l20,27.7l-0.1,0.1   l-20.4,29.2h11.5c3.7,0,5.7-0.9,7.7-3.7l10.1-16.2l0.2,0.3l9.9,15.9c2,2.8,3.9,3.7,7.6,3.7h11.5l-20.4-29.8L305.5,325.8z"/>
	<rect x="15.2" y="298.7" class="st0" width="114.1" height="7.1"/>
	<rect x="15.2" y="348.6" class="st0" width="114.1" height="7.1"/>
	<path class="st0" d="M121.6,311.3v24l-9.2-19.5c-0.7-1.5-1.5-2.5-2.3-3.2c-1.8-1.5-3.7-1.4-3.7-1.4h-3.6h-2.5l-20,0l-8,10.2   l-8-10.2l-22.5,0c-1.9,0-3.1,0.6-3.9,1.3c-1.4,1.3-1.4,3.2-1.4,3.2v19.5l-9.2-19.5c-0.7-1.5-1.5-2.5-2.3-3.2   c-1.8-1.5-3.7-1.4-3.7-1.4h-6.1v31.7h7.7v-21.8c0,0,8.7,18.5,9,19.1c0.2,0.4,0.8,1.5,2.3,2.1c0.7,0.3,1.7,0.6,2.9,0.6l27.2,0   l7.8-10l7.8,10h20.2l2.5,0c1.9,0,3.1-0.6,3.9-1.3c1.4-1.3,1.4-3.3,1.4-3.3v-17.3c0,0,8.7,18.5,9,19.1c0.2,0.4,0.8,1.5,2.3,2.1   c0.7,0.3,1.5,0.5,2.9,0.6c0,0,1.6,0,3.3,0c1.8,0,3.8,0,3.8,0v-31.7H121.6z M59.9,337.3H44.3v-7.2h12.5v-5.8H44.3v-0.5v-6.8h15.5   l8,10.2L59.9,337.3z M100.2,323.8v0.5H87.7v5.8h12.5v7.2H84.5l-7.8-10l8-10.2h15.5V323.8z"/>
</g>
</svg>