<svg version="1.1" id="Ebene_1" xmlns="http://www.w3.org/2000/svg"
	 x="0px" y="0px" enable-background="new 0 0 220 75"
     xml:space="preserve" viewBox="0 0 220 75">
<g>
	<polygon fill="#C8102E" points="75.658,47.48 83.636,34.531 93.104,34.531 90.007,16.975 70.68,47.48 55.396,47.48 86.702,0.215    99.861,0.215 109.842,47.48  "/>
	<path fill="#D60617" d="M99.756,0.344l9.928,47.008H75.89l7.818-12.688h9.243h0.308l-0.054-0.304l-3.011-17.076l-0.116-0.656   l-0.356,0.562l-19.11,30.165H55.639L86.772,0.345L99.756,0.344 M99.966,0.085H86.633L55.156,47.609h15.596l19.187-30.283   l3.012,17.076h-9.386l-8.137,13.208h34.575L99.966,0.085L99.966,0.085z"/>
</g>
<g>
	<path d="M36.293,47.482l4.793-18.25c0.044-0.17-0.031-0.35-0.184-0.437c-0.06-0.033-0.125-0.051-0.191-0.051   c-0.105,0-0.204,0.042-0.278,0.117c-1.497,1.684-3.896,3.096-6.942,4.088c-2.281,0.744-5.915,0.824-7.371,0.824l-7.272-0.021   c-0.231,0.006-0.381,0.129-0.421,0.297l-3.232,13.43H0.167L12.039,0.207c0.88-0.021,5.59-0.079,17.291-0.079   c8.111,0,13.534,1.979,16.122,5.878l0.107,0.159c0.016,0.045,0.125,0.277,0.309,0.303c0.003,0,0.007,0,0.01,0   c0.24,0,0.4-0.143,0.427-0.33c0.008-0.026,1.403-5.155,1.612-5.922h14.52L54.78,34.058c-0.026,0.117,0.001,0.237,0.075,0.33   c0.075,0.092,0.186,0.146,0.303,0.146h7.501l-8.632,12.948H36.293L36.293,47.482L36.293,47.482z M24.42,10.932   c-0.167,0.021-0.301,0.141-0.336,0.301l-2.875,10.945c-0.042,0.204,0.087,0.4,0.289,0.445c0.026,0.007,0.083,0.021,2.612,0.021   c1.127,0,2.449-0.004,3.586-0.01c5.347-0.021,7.697-3.053,8.112-5.881c0.272-1.514-0.129-2.785-1.304-4.113   c-1.068-1.118-2.752-1.685-5.009-1.685c-0.001,0-0.003,0-0.004,0c-0.896,0-2.455-0.009-3.612-0.018L24.48,10.93h-0.06V10.932z"/>
	<path d="M29.329,0.259c8.064,0,13.452,1.958,16.014,5.819l0.094,0.139c0.047,0.107,0.182,0.348,0.409,0.379l0.057,0.006h0.02   c0.255,0,0.474-0.19,0.504-0.414c0.013-0.051,1.312-4.82,1.589-5.842h14.259l-7.621,33.686c-0.034,0.154,0.002,0.314,0.101,0.438   c0.098,0.123,0.246,0.194,0.403,0.194h7.259l-8.459,12.689H36.46l4.75-18.088c0.06-0.227-0.042-0.466-0.247-0.584   c-0.078-0.043-0.166-0.065-0.253-0.065c-0.138,0-0.274,0.057-0.376,0.164c-1.479,1.664-3.859,3.062-6.883,4.049   c-2.264,0.736-5.881,0.815-7.331,0.815h-0.08c-0.305,0-1.929-0.004-3.563-0.008c-1.651-0.005-3.313-0.01-3.629-0.01h-0.062   c-0.231,0.008-0.431,0.172-0.485,0.396l-3.209,13.33H0.33L12.138,0.334C13.233,0.312,18.007,0.259,29.329,0.259 M24.11,22.773   c1.127,0,2.449-0.005,3.586-0.011c5.429-0.021,7.815-3.108,8.238-5.981c0.281-1.562-0.13-2.865-1.34-4.234   c-1.09-1.143-2.806-1.721-5.099-1.721h-0.081c-0.815,0-2.377-0.01-3.535-0.019c-0.684-0.004-1.227-0.008-1.393-0.008   c-0.049,0-0.077,0.002-0.081,0.003c-0.223,0.024-0.403,0.188-0.445,0.389l-2.88,10.967c-0.056,0.266,0.119,0.531,0.387,0.592   C21.512,22.76,21.565,22.773,24.11,22.773 M29.329,0C16.461,0,12.334,0.068,11.937,0.081L0,47.614h15.297l3.257-13.529   c0.027-0.113,0.127-0.195,0.243-0.198c0.003,0,0.021,0,0.052,0c0.629,0,6.58,0.019,7.191,0.019c0.021,0,0.049,0,0.08,0   c0.857,0,4.907-0.015,7.41-0.829c2.594-0.845,5.25-2.159,6.995-4.122c0.049-0.052,0.117-0.078,0.185-0.078   c0.043,0,0.087,0.012,0.127,0.033c0.103,0.06,0.152,0.179,0.123,0.291l-4.835,18.415h17.97l8.805-13.21h-7.743   c-0.079,0-0.152-0.035-0.202-0.099c-0.05-0.062-0.067-0.144-0.05-0.22l7.692-34.001H47.818c0,0-1.64,6.025-1.642,6.033   c-0.019,0.129-0.128,0.223-0.254,0.223c-0.012,0-0.024-0.002-0.037-0.004c-0.125-0.018-0.222-0.247-0.222-0.247   C44.981,5.104,42.197,0,29.329,0L29.329,0z M24.11,22.514c-1.421,0-2.536-0.004-2.584-0.016c-0.134-0.031-0.219-0.158-0.192-0.286   l2.877-10.953c0.021-0.104,0.111-0.186,0.223-0.197c0.002,0,0.021,0,0.053,0c0.45,0,3.634,0.025,4.928,0.025   c0.025,0,0.052,0,0.081,0c0.843,0,3.372,0.026,4.912,1.64c0.956,1.082,1.578,2.314,1.273,4.011   c-0.465,3.172-3.122,5.751-7.984,5.771C26.559,22.512,25.238,22.514,24.11,22.514L24.11,22.514z"/>
</g>
<g>
	<path d="M192.117,47.48l-9.122-21.814c-0.062-0.146-0.2-0.238-0.356-0.238c-0.195,0.015-0.332,0.129-0.375,0.293l-5.535,21.761   h-14.812l11.349-47.268h15.486l8.896,22.965c0.057,0.148,0.199,0.247,0.359,0.247c0.192-0.011,0.333-0.128,0.373-0.29l6.072-22.922   h15.377l-12.671,47.268L192.117,47.48L192.117,47.48z"/>
	<path d="M219.661,0.344l-12.601,47.008h-14.858l-9.091-21.735c-0.079-0.19-0.267-0.314-0.508-0.314c-0.002,0-0.004,0-0.006,0   c-0.222,0.018-0.406,0.172-0.464,0.389l-5.511,21.663h-14.545l11.281-47.008h15.302l8.862,22.882c0.074,0.197,0.27,0.33,0.511,0.33   h0.001c0.229-0.015,0.414-0.17,0.468-0.385l6.048-22.827h15.11 M220,0.085h-15.645l-6.1,23.021   c-0.025,0.106-0.122,0.186-0.232,0.191c-0.004,0-0.01,0-0.017,0c-0.104,0-0.2-0.062-0.239-0.164L188.84,0.086h-15.681   l-11.407,47.525h15.073l5.562-21.857c0.026-0.106,0.118-0.186,0.23-0.195c0.008,0,0.014,0,0.02,0c0.104,0,0.197,0.062,0.239,0.158   l9.153,21.895h15.229L220,0.085L220,0.085z"/>
</g>
<g>
	<path d="M111.284,47.48l9.097-35.062c0.029-0.115,0.005-0.241-0.066-0.335c-0.072-0.095-0.188-0.151-0.308-0.151h-15.772   l3.126-11.719h44.727l-2.986,11.719h-13.728c-0.176,0-0.33,0.119-0.376,0.293l-8.915,35.255H111.284L111.284,47.48z"/>
	<path d="M151.921,0.344l-2.92,11.46h-13.626c-0.234,0-0.439,0.161-0.501,0.393l-8.89,35.154h-14.532l9.057-34.897   c0.04-0.155,0.007-0.322-0.091-0.448c-0.1-0.126-0.251-0.2-0.41-0.2h-15.604l3.058-11.46L151.921,0.344 M152.254,0.085h-44.991   l-3.196,11.979h15.94c0.078,0,0.154,0.036,0.205,0.102c0.048,0.062,0.063,0.146,0.044,0.225l-9.14,35.225h15.067l8.938-35.354   c0.028-0.114,0.133-0.195,0.25-0.195H149.2L152.254,0.085L152.254,0.085z"/>
</g>
<g>
	<path d="M143.782,47.48l8.028-32.382h13.812l-7.582,32.382H143.782z M152.475,11.934l3.104-11.719h13.884l-2.882,11.719H152.475z"/>
	<path d="M169.295,0.344l-2.816,11.46h-13.834l3.03-11.46H169.295 M165.463,15.229l-7.521,32.123h-13.996l7.968-32.123H165.463    M169.625,0.085h-14.148l-3.168,11.979h14.371L169.625,0.085L169.625,0.085z M165.787,14.971H151.71l-8.093,32.64h14.527   L165.787,14.971L165.787,14.971z"/>
</g>
<path d="M137.663,58.854l2.95,0.01l-0.225,11.799h0.041l5.562-11.787l3.964,0.012l-0.605,11.801h0.039l5.879-11.785l3.058,0.008  l-7.896,15.376l-3.689-0.011l0.551-12.306h-0.04l-5.887,12.29l-3.646-0.01L137.663,58.854z"/>
<path d="M160.217,58.911l2.953,0.008l-1.6,6.216l5.947,0.018l1.599-6.217l2.95,0.008l-3.951,15.387l-2.95-0.008l1.733-6.745  l-5.947-0.017l-1.732,6.744l-2.951-0.008L160.217,58.911z"/>
<path d="M174.934,58.95l8.666,0.02l-0.582,2.429l-5.756-0.018l-0.972,3.789l5.144,0.014l-0.603,2.426l-5.166-0.012l-1.108,4.317  l5.818,0.017l-0.646,2.426l-8.77-0.021L174.934,58.95z"/>
<path d="M186.652,58.979L195.318,59l-0.58,2.427l-5.756-0.014l-0.977,3.79l5.145,0.014l-0.602,2.424l-5.166-0.014l-1.107,4.321  l5.817,0.014l-0.644,2.427l-8.771-0.022L186.652,58.979z"/>
<path d="M198.225,59.009l2.953,0.009l-3.373,12.959l5.776,0.018l-0.644,2.424l-8.709-0.021L198.225,59.009z"/>
<path d="M216.48,62.01c-0.838-0.465-1.938-0.8-3.014-0.802c-1.054-0.002-2.488,0.435-2.564,1.76  c-0.142,2.47,4.886,2.326,4.645,6.605c-0.216,3.771-3.119,5.131-6.345,5.122c-1.41-0.004-2.849-0.359-4.147-0.871l0.91-2.622  c1.107,0.555,2.279,1.063,3.544,1.067c1.412,0.004,2.849-0.744,2.942-2.396c0.156-2.781-4.885-2.354-4.654-6.454  c0.186-3.243,2.924-4.646,5.748-4.64c1.287,0.002,2.604,0.182,3.775,0.689L216.48,62.01z"/>
<polygon fill="#C8102E" points="63.84,57.757 65.233,64.393 72.22,64.393 66.071,68.352 67.534,74.998 62.372,70.846 56.288,75   59.228,68.352 54.006,64.393 60.982,64.393 "/>
<polygon fill="#C8102E" points="91.724,57.757 93.119,64.393 100.106,64.393 93.956,68.352 95.418,74.998 90.257,70.846 84.172,75   87.114,68.352 81.891,64.393 88.868,64.393 "/>
<polygon fill="#C8102E" points="119.607,57.757 121.005,64.393 127.992,64.393 121.842,68.352 123.305,74.998 118.143,70.846   112.059,75 114.999,68.352 109.775,64.393 116.753,64.393 "/>
</svg>