<svg version="1.1" id="Calque_1" xmlns="http://www.w3.org/2000/svg" xmlns:xlink="http://www.w3.org/1999/xlink" x="0px" y="0px" style="enable-background:new 0 0 453.5 141.7;" xml:space="preserve" viewBox="2.77 4.9 448.4 112.2">
<style type="text/css">
	.st0{fill:#004994;}
	.st1{fill:#FFFFFF;}
	.st2{fill:url(#SVGID_1_);}
	.st3{fill:#2EA83B;}
</style>
<g>
	<g>
		<path class="st0" d="M351.9,108.1c0.4,0.4-0.3,0.4-0.3,0.4H2.8l13.9-76c2-12.1,10.4-18,22-18l321.6,0c0.8,0,0.2,0.5,0.2,0.5    c-7.8,6.3-13,12.3-17.5,19.9c-19.7-0.5-30.5,15.8-30.4,28.4c0.1,16.2,13,24.4,24.9,24C340.8,95.7,345.8,102.7,351.9,108.1z"/>
		<g>
			<path class="st0" d="M317.2,61c-1.6,14.1,9.9,23.7,23.4,21.6c6.1,20.3,24.5,34.5,47.8,34.5c31,0,58.9-25.1,62.4-56.1     c3.5-31-18.7-56.1-49.7-56.1c-23.3,0-44.9,14.2-55.7,34.5C332.2,37.3,318.8,47,317.2,61z"/>
			<path class="st1" d="M425,32c-4.3-5.1-12.5-7.7-23.5-7.7c-14.7,0-31.5,5.8-34.5,22c-0.8,4.3-0.1,7.9,2,10.9     c3.1,4.3,9.3,7.1,18.4,8.4l13.4,1.9c4.4,0.6,7.1,1.7,8.3,3.4c0.8,1,1,2.4,0.6,4.1c-0.9,4.5-6.2,9.8-18.4,9.8     c-6.3,0-10.8-1.4-13.3-4.1c-1.8-2-2.6-4.9-2.3-8.3l-15.9,0c-1.1,6-0.1,11,3.2,14.9c4.5,5.5,13,8.3,24.5,8.3     c22.5,0,36.4-7.9,39.1-22.3c0.6-3.3,0.8-8-2.1-12c-2.7-3.7-7.4-6.1-14.1-7l-18.6-2.7c-3.6-0.5-6-1.6-7.1-3.1     c-0.8-1.1-1-2.6-0.7-4.5c1.1-5.7,8.2-8.8,14.3-8.8c6.3,0,10.3,1.2,12.5,3.6c1.6,1.8,2.2,4.5,1.7,7.9l15.9,0     C429.4,40.6,428.2,35.7,425,32z"/>
			
				<radialGradient id="SVGID_1_" cx="5457.5234" cy="-1900.6766" r="62.8895" gradientTransform="matrix(0.1914 0 -2.280000e-02 0.1914 -747.4182 425.6211)" gradientUnits="userSpaceOnUse">
				<stop offset="0.25" style="stop-color:#E5E99B"/>
				<stop offset="1" style="stop-color:#75B843"/>
			</radialGradient>
			<path class="st2" d="M351.3,61.2c-0.8,6.6-6.8,12-13.5,12c-6.6,0-11.4-5.4-10.6-12c0.8-6.6,6.8-12,13.5-12     C347.4,49.2,352.1,54.6,351.3,61.2z"/>
		</g>
		<g>
			<g>
				<path class="st1" d="M85.3,62.6c-1.3,7-7,12.1-13.8,12.1c-7,0-11-4.9-9.6-12.6c1.3-7.1,7.2-12,14.1-12      C84,50.1,86.5,56.2,85.3,62.6z M40.2,95.9h15.3l3.5-18.7c2.5,3.2,7,6.8,15.8,6.8c13.4,0,24.2-8.1,26.7-21.3      c2.5-13.7-5.6-21.8-18.3-21.8c-10,0-15.2,4-19.5,8.2c0.4-2.2,0.7-4.4,0.9-6.6H49.9c-0.2,2.1-0.4,4.1-0.9,6.6L40.2,95.9z"/>
				<path class="st1" d="M125,62.4c1.2-6.4,6.5-12.8,13.8-12.8c7.8,0,10,5.5,8.6,12.8c-1.6,8.7-8.5,12.8-13.5,12.8      C126.8,75.2,123.5,70.3,125,62.4z M108.6,62.4c-2.3,12.4,4,21.6,23.5,21.6c20,0,29.4-10.2,31.5-21.6c1.8-9.8-2.1-21.6-23.5-21.6      C119.4,40.8,110.6,52,108.6,62.4z"/>
				<path class="st1" d="M176.8,42.4h15.3l-7.4,40.1h-15.3L176.8,42.4z M193,38.1h-15.5l2.2-11.1h15.5L193,38.1z"/>
				<path class="st1" d="M204.2,50.6c0.5-2.6,0.9-5.5,1.2-8.2h14.9c-0.3,2.4-0.6,4.8-1,7.2h0.2c5-5.4,11.6-8.7,18.6-8.7      c14.6,0,18.6,8.3,16.7,18.8l-4.2,22.9h-15.3l3.8-20.5c1.2-6.4-0.8-10.9-7.8-10.9c-6.3,0-12.7,4.9-14.3,13.7l-3.3,17.7h-15.3      L204.2,50.6z"/>
				<path class="st1" d="M262.5,42.4h9.8l1.5-8.2l16.4-5.6l-2.5,13.8h13l-1.8,9.7h-13l-2.3,12.5c-1,5.6-0.9,8.6,5.3,8.6      c1.4,0,3.7-0.2,6.2-0.5l-1.8,9.7c-1.5,0.2-5.7,1-10.5,1c-11.8,0-17.1-4.5-15.3-14.3l3.1-17h-9.8L262.5,42.4z"/>
			</g>
		</g>
	</g>
</g>
</svg>