<svg version="1.1" id="layer" xmlns="http://www.w3.org/2000/svg" x="0px" y="0px"
     style="enable-background:new -153 -46 652 652;" xml:space="preserve" viewBox="-118 233.07 600 113.65">
<style type="text/css">
	.st0{fill:#007FC7;}
	.st1{fill:#E7000E;}
</style>
<g>
	<path class="st0" d="M315.7,243.8h-24.4l-3.8,30.8c-0.4,3.3-0.8,6.7-1,10c-0.5,6.4-0.6,12.6-0.9,18.8c-2.2-4.7-4.2-9.4-6.7-14   c-1.9-3.8-4.2-7.4-6.4-11.1l-21.1-34.6h-26.6l-12.2,89.7h24.1l5.3-40.5c0.5-3.6,0.9-7,1.3-10.4c0.2-3.4,0.6-6.7,0.9-10.2   c2.4,5.7,4.8,11.4,7.7,16.9c1.9,4.1,4.2,7.9,6.5,11.7l19.3,32.5h26L315.7,243.8z M49.4,262.1h5.2c4.3,0,8.5,0.4,10.8,4.7   c0.5,0.9,1.3,2.7,1.3,5.2c0,2.2-0.6,9-7.6,11.2c-1.6,0.5-2.7,0.6-6.1,0.6h-6.4L49.4,262.1z M27.7,243.8l-11.9,89.7H40l3.2-24.5   c0.5-3.8,1-7.8,1.3-11.6L64,333.6h27.7l-21-34.2c3.9-1.4,5.2-2,7.2-3.3c3.2-1.9,5.5-4.6,6.4-5.6c2.7-3.4,6.4-9.7,6.4-20.1   c0-17-11.1-23.4-17.5-25.2c-4.7-1.3-10.9-1.4-15.9-1.4H27.7z"/>
	<path class="st0" d="M351.6,299.4c2.3-5.9,4.6-11.6,6.7-17.5c1.9-5.2,3.6-10.4,5.3-15.8l5,33.3H351.6z M353.3,243.8l-44.3,89.7   h26.9l7.2-15.6h30l4.4,15.6H403l-23.1-89.7H353.3z"/>
	<polygon class="st0" points="421.3,243.8 409.3,333.6 470.6,333.6 473.4,311.9 436.5,311.9 445.6,243.8  "/>
	<path class="st0" d="M481.3,250.8c0,3.1-1.9,5.8-4.8,6.9c-1.1,0.4-2,0.4-2.5,0.4c-3,0-5.7-1.8-6.8-4.5c-0.4-0.9-0.5-1.8-0.5-2.8   c0-3.3,2-5.2,3-5.9c1.7-1.3,3.6-1.4,4.3-1.4c3.3,0,5.1,2,5.9,2.9C481.2,248.2,481.3,250,481.3,250.8 M482,250.8   c0-1.8-0.5-3.4-1.6-4.9c-1.6-2.1-3.9-3.2-6.5-3.2c-3.4,0-5.4,1.9-6.2,2.9c-0.7,0.8-1.8,2.5-1.8,5.1c0,3.6,2.1,5.6,3.1,6.4   c1.4,1.1,3.1,1.6,4.9,1.6c1.1,0,4-0.3,6.1-2.8C481.8,254,482,251.8,482,250.8 M472.7,249.5v-2.1h1.6c0.7,0,1.1,0.2,1.3,0.5   c0.1,0.2,0.1,0.4,0.1,0.5c0,0.3-0.1,0.5-0.2,0.6c-0.3,0.5-0.7,0.5-1.7,0.5H472.7z M478.4,255.8c-0.7-1.2-0.8-3-0.9-3.3   c0-0.2-0.1-1.1-0.8-1.6c-0.1-0.1-0.2-0.2-0.3-0.2c0.5-0.2,1.8-0.7,1.8-2.4c0-0.6-0.2-1.2-0.6-1.7c-0.5-0.7-1.1-1-2.8-1.1   c-0.3,0-0.6,0-0.9,0h-3.7v10.3h2.5v-4.3h0.4c0.5,0,0.9,0,1.3,0.3c0.3,0.2,0.3,0.6,0.5,1.3c0.2,0.9,0.2,1.8,0.6,2.7L478.4,255.8z"/>
	<path class="st0" d="M156.7,233.1c5.6,0,21.1,0.8,34.4,11.4c7,5.6,19.5,18.5,19.5,42.4c0,20-8.9,33.6-13.2,38.8   c-3.5,4.6-13.5,15-29.4,19.2c-2.8,0.6-8.3,1.8-15.9,1.8c-2.8,0-9.1-0.2-16.4-2c-14-3.5-27.1-12.7-33.8-26.4   c-1.2-2.4-2.8-6.3-4.1-12.4c-1.5-6.6-1.5-11.6-1.5-14.2c0-14,3.9-26.4,12.6-37.1C115.6,246.4,130.2,232.8,156.7,233.1 M154.6,256.7   c-6.8-0.2-13.3,1.7-19.1,5.6c-4.9,3.5-13.5,12.4-13.5,28.8c0,5.5,1,9.1,1.7,11.3c4.4,12.9,16.2,20.1,29.1,20.1c3.7,0,10.5-0.5,18-6   c12.5-9.1,13.3-24,13.3-29c0-7.1-1.9-13.6-6-19.4C172.3,260.2,164.2,256.7,154.6,256.7"/>
	<path class="st1" d="M-12,262.9l2.6-19.4h-31.8c-8.8,0-14.8,2.2-18.9,6.5c-3.4,3.6-6.2,7.9-9.1,12.8L-12,262.9z"/>
	<path class="st1" d="M-12.6,266.6l-58.9,0.1c-2.7,4.9-5.6,10.2-9.1,15.7c-0.8,1.3-1.5,2.4-2.3,3.7l67.6,0L-12.6,266.6z"/>
	<path class="st1" d="M-18.3,310.5l2.9-20.9l-69.6,0c-4.9,7.5-9.6,14.2-14.7,20.9H-18.3z"/>
	<path class="st1" d="M-102,313.4c-4.8,6.2-10,12.6-16,20.1l96.6,0l2.6-20.1L-102,313.4z"/>
</g>
</svg>