<?xml version="1.0" encoding="UTF-8"?><svg id="b" xmlns="http://www.w3.org/2000/svg" viewBox="0 0 440.7496 134.3165"><defs><style>.c{fill:#141414;}</style></defs><path class="c" d="M138.9533,76.017c-4.5942,0-7.0827-1.2974-7.0827-8.1462v-18.9298h11.5918v-22.0564h-11.5918V10.5709h-23.9069v43.8576c-3.552-16.8879-17.76-29.1604-35.2435-29.1604-13.6124,0-25.2256,7.4868-31.3512,18.8022v-17.9939l-3.2755-.4041c-1.9993-.2552-3.9774-.3616-5.8704-.3616C12.9531,25.2894,0,38.3063,0,57.6615v40.8586h23.9069v-40.8586c0-5.9129,3.6796-9.4436,9.8265-9.4436,1.0209,0,2.1057.1063,3.233.2978l2.212.4041c-1.5952,4.2752-2.4673,8.9332-2.4673,13.8677,0,20.8866,15.8032,37.2428,35.9879,37.2428,17.6324,0,31.9467-12.4001,35.3498-29.3944,1.0422,17.3559,11.6769,27.9906,28.2671,27.9906,1.4676,0,2.999-.0851,4.5517-.2552l3.3393-.3616v-22.2691l-3.9561.234c-.4467.0213-.8721.0425-1.2974.0425ZM72.7202,77.4633c-6.9976,0-12.081-6.1256-12.081-14.5696s5.1897-15.08,12.081-15.08,12.081,6.4872,12.081,15.08-5.0834,14.5696-12.081,14.5696Z"/><path class="c" d="M160.4779,2.4673c-6.6573,0-12.081,5.3599-12.081,11.9534v8.6992h24.0345v-8.6992c0-6.5935-5.3599-11.9534-11.9534-11.9534Z"/><path class="c" d="M172.4314,26.8846h-23.9068v71.6142h23.9068V26.8846Z"/><path class="c" d="M391.3364,25.2681c-7.7634,0-14.8674,2.6374-20.3761,7.4868-5.3599-4.8494-12.4852-7.4868-20.4825-7.4868-13.7613,0-24.5449,6.8275-29.5645,17.7174v-16.9092l-3.2755-.4041c-1.9993-.2552-3.9774-.3616-5.8704-.3616-17.0794,0-29.1817,10.2093-31.7127,26.0125-4.5517-15.2502-18.079-26.0338-34.4565-26.0338-15.1438,0-27.8204,9.2735-33.2229,22.7796v-20.9291h-11.1452c.872-3.2968,3.0415-4.0625,6.2319-4.0625.4679,0,.9784,0,1.5101.0638l4.0412.319V.6381l-3.318-.3828c-1.4676-.1702-2.9352-.2552-4.339-.2552-17.0156,0-28.4585,12.6979-28.4585,31.6277v102.6889h23.9069V49.1749h11.1665c-1.5101,4.1901-2.3609,8.763-2.3609,13.5699,0,20.8866,15.8032,37.2428,35.9879,37.2428,15.8245,0,28.969-9.9754,33.9673-24.311v22.8221h23.9068v-40.8373c0-5.9129,3.6796-9.4436,9.8265-9.4436,1.0209,0,2.1057.1063,3.233.2978l2.3396.4254c-.6593,2.7438-1.0209,5.6577-1.0209,8.7417v40.8586h23.9068v-41.2627c0-5.1472,3.4244-8.4652,8.7205-8.4652,2.0419,0,8.21,0,8.21,8.4652v41.2202h23.9069v-41.2202c0-5.0621,3.5094-8.4652,8.7205-8.4652,5.5301,0,8.3376,2.8501,8.3376,8.4652v41.2202h23.9069v-40.8373c0-19.3765-12.9744-32.3934-32.2657-32.3934h.0425ZM245.5982,77.4633c-6.9976,0-12.081-6.1256-12.081-14.5696s5.1897-15.08,12.081-15.08,12.081,6.4872,12.081,15.08-5.0834,14.5696-12.081,14.5696Z"/><path class="c" d="M430.9614,99.4061v-6.689h3.3882c.2723,0,.5679.0785.8891.2357.3191.151.5913.3867.8146.707.2297.3141.3445.7129.3445,1.1964,0,.4894-.117.9063-.3531,1.2509-.2361.3382-.5232.5951-.8614.7704-.3318.1753-.6466.2627-.9422.2627h-2.446v-1.0875h1.993c.1999,0,.4147-.0998.6445-.2991.234-.1995.3531-.4986.3531-.8974,0-.4109-.1191-.6889-.3531-.834-.2297-.1448-.4318-.2174-.6083-.2174h-1.3953v5.6013h-1.4676ZM435.0026,96.2519l1.6675,3.1543h-1.6122l-1.6314-3.1543h1.5761ZM433.4989,103.3942c-1.0039,0-1.944-.1874-2.8203-.5619-.8763-.3748-1.6463-.8944-2.3099-1.5591-.6657-.6647-1.1847-1.435-1.5591-2.3111-.3743-.8761-.5615-1.8158-.5615-2.8188s.1872-1.9427.5615-2.8188c.3743-.8761.8933-1.6465,1.5591-2.3111.6636-.6647,1.4336-1.1845,2.3099-1.5591.8763-.3746,1.8164-.5619,2.8203-.5619,1.0018,0,1.9419.1874,2.8182.5619.8763.3746,1.6463.8944,2.312,1.5591.6636.6647,1.1826,1.4351,1.559,2.3111.3744.8761.5615,1.8158.5615,2.8188s-.1872,1.9427-.5615,2.8188c-.3764.8761-.8954,1.6465-1.559,2.3111-.6657.6647-1.4357,1.1843-2.312,1.5591-.8763.3746-1.8164.5619-2.8182.5619ZM433.4989,101.6539c1.0145,0,1.9398-.2478,2.7735-.7432.8338-.4956,1.4974-1.1603,1.9929-1.994.4956-.834.7444-1.7583.7444-2.7735s-.2489-1.9396-.7444-2.7735c-.4956-.8338-1.1592-1.4984-1.9929-1.994-.8338-.4954-1.759-.7432-2.7735-.7432-1.0167,0-1.9398.2478-2.7735.7432-.8338.4956-1.4995,1.1603-1.9951,1.994-.4956.834-.7423,1.7583-.7423,2.7735s.2467,1.9396.7423,2.7735c.4956.8338,1.1613,1.4984,1.9951,1.994.8338.4954,1.7569.7432,2.7735.7432Z"/></svg>