<svg xmlns="http://www.w3.org/2000/svg" viewBox="264 1325 1899 464.02"><path d="m1046 1326.5c-64.9 11-114.5 63.1-124.1 130.3-1.9 13.7-.6 43.3 2.4 56.2 7.3 30.7 21 55.8 42.6 77.8 26.6 27.3 56.1 40.2 91.9 40.2 7.5 0 17.8-.7 22.7-1.5 23.5-3.8 50.8-13.9 74.4-27.5 4.9-2.7 9.1-5 9.5-5 .3 0 .6 7.6.6 17v17h49v-301h-54l-.1 7.2c-.1 4-.4 10.1-.8 13.6l-.6 6.4-4.5-3.3c-13-9.6-33.8-19.7-49.2-24-17.5-4.9-42.6-6.3-59.8-3.4zm45.3 57.8c33 9.4 57.5 35.6 66.8 71.4 3.4 13 3.3 33.9-.3 47.4-4.8 17.7-12.4 31.6-24.2 43.8-18.4 19-39.8 28.2-65.6 28.2-25.9 0-47.5-9.2-66.1-28.2-26.5-27-34.5-67.9-20.5-104.4 9.4-24.5 28.8-44.7 52.3-54.5 17.9-7.5 39.4-8.8 57.6-3.7zm-359.1-55.2c-17.4 1.6-37.2 7.5-55.7 16.6-8.7 4.3-24.6 13.8-30.9 18.4-2.2 1.6-4.4 2.9-4.8 2.9s-.8-8.3-.8-18.5v-18.5h-51v459h52v-91c0-50.1.1-91 .3-91s11.3 5.5 24.8 12.3c45.2 22.7 55.8 25.6 87.4 23.7 19.2-1.1 30.3-3 42.8-7.1 25.2-8.4 46.3-22 65.8-42.7 38.4-40.8 52.1-99.1 35.8-152.2-7.9-25.5-21.2-47.3-40.9-67.1-26-26-58.5-40.8-98.4-44.8-12-1.2-12.8-1.2-26.4 0zm38.8 61c38.6 9.9 65.6 38.3 73.6 77.3 2.5 12.2 1.5 34-2 46.1-7.9 27.3-26.1 49.1-51.1 61.5-49.7 24.7-108.8 5.4-133-43.5-14.5-29.4-15-60.1-1.5-88.4 13.8-28.8 39.7-48.4 72.2-54.6 10.4-2 30.8-1.3 41.8 1.6zm901-60.6c-39.4 4.8-73.5 21.4-99.7 48.6-8.9 9.3-10.8 11.6-17 20.9-19.3 28.8-28.4 64.7-25.3 99.5 3.4 37.5 18.6 69.6 45.4 96 12.1 11.9 23.8 20.4 38.4 27.8 35.2 17.9 71 22.6 106.9 14.2 43.1-10.2 81.5-39.6 102.6-78.5 3.2-5.8 12.3-30.8 11.5-31.5-.2-.2-11.1-.5-24.3-.7-23.1-.3-24.2-.2-28.8 1.9-7.5 3.5-12 7.5-20.5 18.6-13.8 17.9-28.5 27.5-52 33.9-11.8 3.3-34.2 3-47.3-.5-17.9-4.7-33-13.2-45.2-25.3-22.3-22-32.7-52-28.3-81.3 7-45.9 33.3-73.9 78.8-83.7 12.3-2.7 31.7-2.5 42.8.4 21.1 5.6 39.3 17.8 54.5 36.8 11.1 13.8 8.2 12.8 40.8 13.2 15.2.2 27.7 0 27.7-.4 0-2.3-4.8-16-8-23-7.1-15.4-15.5-27-29.4-40.9-26.4-26.3-61-43-96-46.4-12.9-1.3-13.9-1.3-27.6.4zm-1273 1c-33.7 5-61.3 18.7-84.5 42-17 17-25.4 30.9-38 62.4-3.1 7.9-7.2 17.9-9.1 22.3l-3.4 8v40.5l6.8 1.8c6.3 1.8 13.2 2 125.4 2.5 65.2.3 119 .8 119.3 1.2 1.6 1.6-7.4 20.8-14.7 31.5-10.4 15-25.5 26.8-43.2 33.8-13.7 5.4-23 7-39.1 6.9-16.3-.1-25-2-38.2-8.3-11.3-5.4-18.1-10.3-29.8-21.1-14.8-13.8-13.7-13.5-45.3-13.4-14.4 0-26.5.4-26.9.8-.9.8 4.6 14.3 9.8 23.8 16.3 30 47.5 54.9 84 67.1 17.2 5.7 27.6 7.2 50.4 7.1 17.6 0 22.5-.4 30.5-2.1 14.2-3.2 24.3-6.8 36.5-12.8 36.9-18.4 67.4-53.5 80-91.9 5.6-17.2 6.9-25.3 6.8-42.6 0-14-1.7-27.7-3.9-31.1-.3-.5-52.6-.9-123-.9h-122.4l.6-2.8c6-24.9 25-47.2 50.8-59.3 27-12.6 58.1-12.4 85.3.6 10.8 5.1 18.1 10.3 27.8 19.5 13.1 12.4 9.6 11.5 43.3 11.8l29.2.3v-3.2c0-3.7-6.9-18-13.2-27.2-23.3-34.4-58.8-57.5-100.5-65.7-14.1-2.8-38.1-3.5-51.3-1.5zm1593.7-.5c-67.5 6.5-124.2 56.6-138.4 122.3-1.4 6.5-1.8 12.9-1.8 30.2 0 19.2.3 23.4 2.3 32.9 7 32.5 20.7 58.1 43.2 80.5 24.6 24.6 57.5 40 94 44.2 48.8 5.5 102.2-16.3 134.4-55 13.5-16.2 22-32 30.7-56.6l5.2-15-.1-20.5c-.1-27-2.1-43.5-6.8-57.1-14.1-40.7-42.1-72.6-79.9-90.9-25.4-12.3-55-17.7-82.8-15zm41.6 61.4c17.2 5.1 32.5 14.3 44.3 26.8 12 12.7 20 26.8 24.1 42.7 13 51-16.6 102-68.4 117.8-8 2.4-10.3 2.6-25.8 2.7-13.7.1-18.5-.3-24.5-1.8-29.3-7.5-52.2-25.8-65-52.1-7.9-16.1-9.4-22.9-9.4-43 0-15.6.2-17.7 2.7-25.6 11.6-37.7 39.9-62.9 78.6-70 2.5-.4 11.4-.6 19.6-.5 12.6.3 16.4.8 23.8 3zm-781.3 93.1v154.5h58.9l.3-89.3c.4-98.2 0-90.8 6.8-108.5 5.9-15.4 18.9-31.3 33-40.6 19-12.6 42.6-15.8 63.2-8.9 13.2 4.5 22.5 10.9 36.4 24.8 9 9.1 12.9 12.3 15.3 12.8 1.9.4 14.8.7 28.7.7h25.3l-4.1-7.8c-20.5-38.2-43.9-63.2-73.5-78.3-28.7-14.6-56.8-16.3-87.6-5.2-9.8 3.5-25.7 11.5-34.6 17.5-4 2.7-7.5 4.7-7.7 4.5-.3-.2-.7-7.2-1.1-15.6l-.6-15.1h-58.7zm-988.5 200.8c-.3.7-.4 12.7-.3 26.7l.3 25.5 4.5.7c5.6.8 245.2.8 269-.1l17.5-.6v-53l-145.3-.3c-116.7-.2-145.4 0-145.7 1.1z"/><path d="m680 1711.5v27.5h728.8c400.8 0 734.4-.3 741.5-.7l12.7-.6v-53.7h-1483z"/></svg>