<svg width="450" height="57.236" viewBox="0 0 119.063 15.144" xmlns="http://www.w3.org/2000/svg"><path style="clip-rule:evenodd;fill:#ec1c24;fill-rule:evenodd" d="M79.023 278.618H25l23.361-57.236h55.776zm370.864 0h-54.024l23.362-57.236H475z" transform="translate(-6.614 -58.574)scale(.26458)"/><path style="clip-rule:evenodd;fill:#231f20;fill-rule:evenodd" d="M112.605 226.931h14.893l-15.769 37.962s-1.752 4.088.876 4.381c2.628.292 4.672.292 6.717-4.381 2.044-4.964 15.769-37.962 15.769-37.962h13.724l-14.6 36.502s-3.796 14.017-23.069 13.725c0 0-7.885.584-11.389-2.044-3.796-2.92-3.504-6.717-2.336-10.221.876-3.212 15.184-37.962 15.184-37.962m22.486 49.351 19.857-49.351h19.273l-4.964 35.917 14.601-35.917h11.097l-19.857 49.351h-18.105l5.839-41.467-16.937 41.467zm60.447 0h-14.6l20.149-49.351h14.309zm47.6-49.351h-21.025l-20.149 49.351h14.309l9.052-22.777c.292 0 .876.292 3.212.292 3.505.293 2.628 4.088 2.628 4.088s-4.38 11.389-4.964 12.557c-.876 2.044-.292 5.84-.292 5.84h14.309c-.876-.876 0-4.964 0-4.964s4.673-10.22 5.84-15.185c1.168-4.964-3.212-5.549-3.504-5.841 0-.292-4.673-.584-4.673-.584 10.512-1.46 14.309-5.84 16.645-14.6 2.045-8.469-11.388-8.177-11.388-8.177m-3.797 9.928c-.876 3.213-1.752 6.717-4.088 8.177-2.044 1.168-3.504 1.752-7.008 1.46l5.256-12.556c0-.001 6.716-.293 5.84 2.919m41.467-10.804c-18.398 0-22.193 13.141-22.193 13.141s-9.345 22.193-10.513 25.99-2.336 12.556 12.557 11.973c20.733 0 24.237-13.725 24.237-13.725s9.053-21.901 9.929-25.113c1.168-3.214 4.38-12.266-14.017-12.266m.584 11.097c-.876 3.504-11.681 28.325-11.681 28.325s-.876 4.38-5.84 3.796c-3.212 0-2.044-2.337-2.044-3.213.292-.875 11.681-28.909 11.681-28.909s2.044-3.505 4.672-3.212c2.628 0 3.796-.292 3.212 3.213m32.122-10.221-2.628 19.565 13.14-19.565h14.017l-24.821 31.246-7.301 18.105h-14.308l7.3-18.105.292-31.246zm30.954 0-30.078 49.351h11.973l7.3-11.973h7.593l-3.213 11.973h14.309l11.681-49.351zm-1.168 29.785h-5.257l11.389-22.193zm43.218 19.566h-29.785l19.857-49.351h14.601l-17.229 41.758h15.477zm10.221-41.759h-.875v-5.256h2.336c1.168 0 1.752.292 1.752 1.46 0 .876-.584 1.46-1.46 1.46l1.752 2.336h-1.168l-1.46-2.336h-.876v2.336zm1.168-2.92c.584 0 1.168 0 1.168-.876s-.584-.876-1.168-.876h-1.169v1.752zm0 5.256c-2.92 0-4.964-2.336-4.964-4.964 0-3.212 2.336-4.964 4.964-4.964s4.964 1.752 4.964 4.964c.001 2.92-2.336 4.964-4.964 4.964m0-9.053c-2.337 0-3.796 1.46-3.796 4.088 0 2.045 1.46 4.089 3.796 4.089 2.044 0 3.796-1.752 3.796-4.089 0-2.627-1.751-4.088-3.796-4.088" transform="translate(-6.614 -58.574)scale(.26458)"/></svg>