<svg xmlns="http://www.w3.org/2000/svg" viewBox="266.77 807.17 2197.12 433.67"><defs><clipPath clipPathUnits="userSpaceOnUse" id="c"><path d="M-1277.764 752.438h2048v-1536h-2048Z"/></clipPath><clipPath clipPathUnits="userSpaceOnUse" id="d"><path d="M-1675.322 793.303h2048v-1536h-2048Z"/></clipPath><clipPath clipPathUnits="userSpaceOnUse" id="e"><path d="M-1798.576 662.368h2048v-1536h-2048Z"/></clipPath><linearGradient x1="0" y1="0" x2="1" y2="0" gradientUnits="userSpaceOnUse" gradientTransform="matrix(343.87619 0 0 -343.87619 200.098 768)" spreadMethod="pad" id="a"><stop style="stop-opacity:1;stop-color:#0067b1" offset="0"/><stop style="stop-opacity:1;stop-color:#0067b1" offset=".5"/><stop style="stop-opacity:1;stop-color:#00487a" offset=".7"/><stop style="stop-opacity:1;stop-color:#00487a" offset="1"/></linearGradient><linearGradient x1="0" y1="0" x2="1" y2="0" gradientUnits="userSpaceOnUse" gradientTransform="matrix(343.79367 0 0 -343.79367 200.145 750.535)" spreadMethod="pad" id="b"><stop style="stop-opacity:1;stop-color:#ffeb00" offset="0"/><stop style="stop-opacity:1;stop-color:#ffeb00" offset=".5"/><stop style="stop-opacity:1;stop-color:#fcc200" offset=".7"/><stop style="stop-opacity:1;stop-color:#fcc200" offset="1"/></linearGradient></defs><path d="m543.975 895.679-171.938 34.924h-.001l-171.938-34.924 29.015-225.67 142.923-64.612h.001l142.923 64.612z" transform="matrix(1.33333 0 0 -1.33333 0 2048)" style="fill:url(#a);stroke:none"/><path d="m372.036 854.439-171.891 41.217 171.891-290.259 171.902 290.276Z" transform="matrix(1.33333 0 0 -1.33333 0 2048)" style="fill:url(#b);stroke:none"/><path d="m0 0-101.495 239.332h73.752L36.925 85.517l64.683 153.815h72.793L73.321 0Z" style="fill:#000;fill-opacity:1;fill-rule:evenodd;stroke:none" transform="matrix(1.33333 0 0 -1.33333 1006.68 1172.886)"/><path d="M0 0v173.049h-65.744v66.394h201.601v-66.394H68.305V0Z" style="fill:#000;fill-opacity:1;fill-rule:evenodd;stroke:none" transform="matrix(1.33333 0 0 -1.33333 1945.744 1172.886)"/><path d="m0 0 32.122 75.068L63.492 0Zm-6.519 153.296L-107.487-86.462h71.834l12.385 30.501H87.081l13.121-30.501h72.265L70.445 153.296Z" style="fill:#000;fill-opacity:1;fill-rule:nonzero;stroke:none" transform="matrix(1.33333 0 0 -1.33333 1335.697 1057.738)"/><path d="M0 0h-37.14v57.948L0 57.853c19.322 0 32.329-8.236 32.329-28.93C32.329 8.34 19.322.104 0 0m99.147 35.041c0 44.454-36.069 77.492-80.37 77.492h-121.982v-239.759h66.065v99.342l85.275-99.342h86.122L54.639-34.738C82.494-22.913 99.147 5.273 99.147 35.041" style="fill:#000;fill-opacity:1;fill-rule:nonzero;stroke:none" transform="matrix(1.33333 0 0 -1.33333 1703.685 1003.251)" clip-path="url(#c)"/><path d="m0 0 32.234 75.068L63.605 0Zm70.541 153.296H-6.408L-107.357-86.462h71.817l12.274 30.501H87.195l13.135-30.501h72.25z" style="fill:#000;fill-opacity:1;fill-rule:nonzero;stroke:none" transform="matrix(1.33333 0 0 -1.33333 2233.762 1057.738)" clip-path="url(#d)"/><path d="M0 0h2.805c3.274 0 5.924 1.092 5.924 3.74 0 2.339-1.715 3.898-5.456 3.898-1.559 0-2.65-.156-3.273-.312Zm-.156-14.496h-5.923v25.562c2.339.469 5.611.781 9.819.781 4.833 0 7.015-.781 8.885-1.872 1.402-1.091 2.493-3.116 2.493-5.612 0-2.805-2.182-4.986-5.298-5.921v-.313c2.493-.935 3.895-2.805 4.675-6.233.779-3.898 1.246-5.456 1.871-6.392H9.975c-.779.936-1.246 3.275-2.026 6.234-.467 2.805-2.027 4.055-5.3 4.055H-.156zM-15.899-1.091c0-11.377 8.417-20.419 19.951-20.419 11.222 0 19.483 9.042 19.483 20.263 0 11.378-8.261 20.574-19.639 20.574s-19.795-9.196-19.795-20.418m45.981 0c0-14.497-11.378-25.875-26.186-25.875-14.651 0-26.34 11.378-26.34 25.875 0 14.185 11.689 25.563 26.34 25.563 14.808 0 26.186-11.378 26.186-25.563" style="fill:#000;fill-opacity:1;fill-rule:nonzero;stroke:none" transform="matrix(1.33333 0 0 -1.33333 2398.101 883.157)" clip-path="url(#e)"/></svg>