<svg id="Layer_1" data-name="Layer 1" xmlns="http://www.w3.org/2000/svg" viewBox="40 397.75 879.15 86.63">
  <defs>
    <style>
      .cls-1 {
        fill: #020000;
        fill-rule: evenodd;
        stroke-width: 0px;
      }
    </style>
  </defs>
  <path class="cls-1" d="M439.07,484.24h111.26c15.23,0,30.27-1.39,41.08-8.53,1.19-.79,1.71-1.28,2.7-2.04,1.43-1.09,1.34-1.35,2.47-2.64,1.8-2.06,2.56-3.42,3.63-6.22,1.97-5.13,2.14-11.9-.38-16.93-1.2-2.4-2.74-3.88-4.53-5.68-9.78-9.83-37.67-11.8-37.67-23.61v-2.19c0-5.7,6.89-8.03,12.77-8.03h51.43v74.78c0,.84.25,1.09,1.09,1.09h25.17c.84,0,1.09-.25,1.09-1.09v-74.78h31.37c.84,0,1.09-.25,1.09-1.09v-9.48h-113.81c-9.36,0-22.07,2.3-29.48,7.36-8.7,5.94-11.24,16.12-7.37,25.84,8.73,21.93,42.32,13.64,42.32,32.46,0,1.73-1.09,4.02-1.91,5.02-3.11,3.77-11.91,4.83-17.06,4.83h-83.17v-26.99h47.06c.84,0,1.09-.25,1.09-1.09v-8.76c0-.84-.25-1.09-1.09-1.09h-47.06v-26.99h51.43c.84,0,1.09-.25,1.09-1.09v-9.48h-84.63v86.45h0Z"/>
  <path class="cls-1" d="M40,397.79c.29,1.26,2.22,4.26,2.94,5.45l46.67,81h33.2c3.56-6.73,7.44-13.09,11.2-19.81l34.4-59.35c5.34.12,12.18,1.5,16.42,4.73,7.51,5.72,6.87,20.74-5.72,27.13-3.38,1.72-8.27,3.22-12.18,3.5l-5.09.38c-.46,5.58-3.05,2.24,3,9.03l3.35,3.94c.67.87,1.09,1.14,1.72,1.92.72.89.87,1.1,1.68,1.97l18.24,21.15c.78.83.86,1.16,1.64,2.01,4,4.31.78,3.37,11.22,3.37h28.82c-.53-2.26-2.69-3.42-4.1-5.02-.85-.96-1.02-1.4-2-2.37l-24.08-26.26c-1.69-1.91-2.98-2.8-4.47-5.02,7.35-.61,18.73-6.24,22-13.75,4.33-9.93,2.89-18.73-4.58-26.29-5.92-5.99-16.25-7.75-28-7.75-10.99,0-21.97,0-32.96,0h-2.79l-31.49,58.25c-.56.99-1.84,3.25-2.07,4.13h-.73c-.64-2.74-34.33-59.44-35.02-62.38h-41.22Z"/>
  <path class="cls-1" d="M374.5,475.12h-14.59v-68.58c9.93,0,18.28-1.11,27.24,3.4,4.4,2.21,6.22,3.64,9.52,6.9,2.66,2.63,4.83,6.24,6.54,9.88,5.41,11.54,3.13,28.54-6.17,37.73-5.7,5.64-13.51,10.67-22.53,10.67h0ZM328.54,483.14h0c0,.84.25,1.09,1.09,1.09h41.95c18.48,0,31.65-1.79,42.98-9.18,8.19-5.35,13.63-13.23,16.33-22.7,1.96-6.87,2.06-14.57.3-21.52-.91-3.6-1.62-5.73-3.07-8.61-3.16-6.26-5.32-8.57-10.12-12.86-8.15-7.28-23.03-11.58-34.75-11.58h-54.72v85.36h0Z"/>
  <path class="cls-1" d="M919.12,397.79h-17.14v58.73c-2.02-1.35-6.42-6.24-8.48-8.3l-46.69-46.69c-1.79-1.79-2.95-3.51-4.55-3.74h-17.25l-.04,84.31c.02,3.04,1.22,2.17,4.42,2.15,4.37-.03,8.76,0,13.13,0v-52.53l53.52,51.17c.98,1.03.84,1.29,2.63,1.38,1.2.06,2.79-.03,4.04-.03,5.47,0,10.94,0,16.41,0v-86.45h0Z"/>
  <path class="cls-1" d="M234.43,483.14c0,.84.25,1.09,1.09,1.09h83.53v-10.94h-52.53v-26.99h47.42c.84,0,1.09-.25,1.09-1.09v-8.76c0-.84-.25-1.09-1.09-1.09h-47.42v-26.99h52.53v-10.58h-84.63v85.36h0Z"/>
  <path class="cls-1" d="M688.94,484.24h83.54c.84,0,1.09-.25,1.09-1.09v-8.75c0-.84-.25-1.09-1.09-1.09h-51.43v-26.99h47.06c.84,0,1.09-.25,1.09-1.09v-8.76c0-.84-.25-1.09-1.09-1.09h-47.06v-26.99h51.43c.84,0,1.09-.25,1.09-1.09v-9.48h-84.63v86.45h0Z"/>
  <path class="cls-1" d="M785.25,484.24h24.08c.84,0,1.09-.25,1.09-1.09v-85.36h-25.17v86.45h0Z"/>
</svg>