<svg xmlns="http://www.w3.org/2000/svg" viewBox="33.18 329.72 733.38 140.02"><defs><clipPath clipPathUnits="userSpaceOnUse" id="a"><path d="M-102.816 308.099h600v-600h-600Z"/></clipPath><clipPath clipPathUnits="userSpaceOnUse" id="b"><path d="M-110.49 307.7h600v-600h-600Z"/></clipPath><clipPath clipPathUnits="userSpaceOnUse" id="c"><path d="M-121.44 307.984h600v-600h-600Z"/></clipPath><clipPath clipPathUnits="userSpaceOnUse" id="d"><path d="M-88.185 308.099h600v-600h-600Z"/></clipPath><clipPath clipPathUnits="userSpaceOnUse" id="e"><path d="M-80.51 307.7h600v-600h-600Z"/></clipPath><clipPath clipPathUnits="userSpaceOnUse" id="f"><path d="M-69.559 307.984h600v-600h-600Z"/></clipPath><clipPath clipPathUnits="userSpaceOnUse" id="g"><path d="M-224.879 350.172h600v-600h-600Z"/></clipPath><clipPath clipPathUnits="userSpaceOnUse" id="h"><path d="M-258.256 270.296h600v-600h-600Z"/></clipPath><clipPath clipPathUnits="userSpaceOnUse" id="i"><path d="M-377.1 294.368h600v-600h-600Z"/></clipPath><clipPath clipPathUnits="userSpaceOnUse" id="j"><path d="M-463.524 293.482h600v-600h-600Z"/></clipPath><clipPath clipPathUnits="userSpaceOnUse" id="k"><path d="M-532.746 294.368h600v-600h-600Z"/></clipPath></defs><path d="m0 0 16.657 60.778H-6.879l4.311-62.047v-40.294h2.225v39.005C-.282-1.702-.141-.776 0 0" style="fill:#ed1c24;fill-opacity:1;fill-rule:nonzero;stroke:none" transform="matrix(1.33333 0 0 -1.33333 137.088 410.798)" clip-path="url(#a)"/><path d="m0 0 10.232 60.385h18.973L2.9-.121c-.221-.705-.544-2.568-.594-3.766v-37.998H.081v39.76S0-1.158 0 0" style="fill:#ed1c24;fill-opacity:1;fill-rule:nonzero;stroke:none" transform="matrix(1.33333 0 0 -1.33333 147.32 410.266)" clip-path="url(#b)"/><path d="m0 0 19.386 60.667h25.268L7.392.373C6.727-.866 6.375-2.719 6.365-4.703v-36.89H-.333v38.904S-.333-.997 0 0" style="fill:#ed1c24;fill-opacity:1;fill-rule:nonzero;stroke:none" transform="matrix(1.33333 0 0 -1.33333 161.92 410.645)" clip-path="url(#c)"/><path d="m0 0-16.657 60.778H6.878L2.568-1.269v-40.294H.342v39.005C.282-1.702.141-.776 0 0" style="fill:#ed1c24;fill-opacity:1;fill-rule:nonzero;stroke:none" transform="matrix(1.33333 0 0 -1.33333 117.58 410.798)" clip-path="url(#d)"/><path d="m0 0-10.232 60.385h-18.974L-2.901-.121c.222-.705.544-2.649.595-3.847v-37.917h2.225v39.76S0-1.158 0 0" style="fill:#ed1c24;fill-opacity:1;fill-rule:nonzero;stroke:none" transform="matrix(1.33333 0 0 -1.33333 107.346 410.266)" clip-path="url(#e)"/><path d="m0 0-19.387 60.667h-25.267L-7.533.453c.584-1.077 1.158-2.739 1.178-4.713v-37.333H.332v38.985S.332-.997 0 0" style="fill:#ed1c24;fill-opacity:1;fill-rule:nonzero;stroke:none" transform="matrix(1.33333 0 0 -1.33333 92.745 410.645)" clip-path="url(#f)"/><path d="M0 0h-26.184v29.064l-29.729 50.808h29.286l13.756-27.06L.886 79.872h28.843L0 29.508Z" style="fill:#000;fill-opacity:1;fill-rule:nonzero;stroke:none" transform="matrix(1.33333 0 0 -1.33333 299.838 466.896)" clip-path="url(#g)"/><path d="M0 0h26.184v-47.816c0-7.876 1.551-14.644 12.317-14.644 9.426 0 12.196 5.993 12.196 14.644V0h26.184v-45.148c0-25.63-11.864-36.839-38.38-36.839C13.757-81.987 0-72.551 0-45.037Z" style="fill:#000;fill-opacity:1;fill-rule:nonzero;stroke:none" transform="matrix(1.33333 0 0 -1.33333 344.34 360.394)" clip-path="url(#h)"/><path d="m0 0-8.097-28.621H8.429Zm-41.724-55.803 28.632 79.872h26.627l28.621-79.872H16.083l-3.102 10.534h-26.073l-2.991-10.534z" style="fill:#000;fill-opacity:1;fill-rule:nonzero;stroke:none" transform="matrix(1.33333 0 0 -1.33333 502.8 392.49)" clip-path="url(#i)"/><path d="M0 0c-.443 2.769-1.883 4.441-3.777 5.438-1.883.997-4.21 1.44-6.757 1.44-5.771 0-8.329-1.661-8.329-4.542 0-11.984 45.933-4.552 45.933-33.626 0-18.521-15.418-27.514-37.383-27.514-21.078 0-34.835 12.317-35.399 26.748h25.077c.554-2.89 2.104-4.995 4.33-6.324 2.105-1.34 4.874-2.004 7.432-2.004 6.546 0 10.867 2.115 10.867 5.881 0 12.095-45.923 3.777-45.923 34.281 0 16.98 14.643 25.52 34.613 25.52 22.186 0 32.287-11.32 34.171-25.298z" style="fill:#000;fill-opacity:1;fill-rule:nonzero;stroke:none" transform="matrix(1.33333 0 0 -1.33333 618.032 391.31)" clip-path="url(#j)"/><path d="m0 0-8.097-28.621H8.429Zm-41.714-55.803 28.621 79.872h26.628l28.631-79.872H16.083l-3.102 10.534h-26.074l-2.991-10.534z" style="fill:#000;fill-opacity:1;fill-rule:nonzero;stroke:none" transform="matrix(1.33333 0 0 -1.33333 710.328 392.49)" clip-path="url(#k)"/></svg>